<svg width="32" height="32" viewBox="0 0 32 32" fill="none" xmlns="http://www.w3.org/2000/svg">
<g id="bxl:gmail">
<path id="Vector" d="M24.9733 7.21338L23.2666 8.54671L15.9999 13.9467L8.73327 8.49338L7.0266 7.16005C6.62454 6.82744 6.13374 6.6201 5.61499 6.56371C5.09624 6.50733 4.57235 6.60437 4.10821 6.84282C3.64408 7.08128 3.2601 7.45066 3.00386 7.90521C2.74761 8.35976 2.63035 8.8795 2.6666 9.40005V24.8534C2.6666 25.3343 2.85765 25.7955 3.19772 26.1356C3.53778 26.4757 3.99901 26.6667 4.47994 26.6667H8.73327V16.3734L15.9999 21.8267L23.2666 16.3734V26.6667H27.5199C28.0009 26.6667 28.4621 26.4757 28.8022 26.1356C29.1422 25.7955 29.3333 25.3343 29.3333 24.8534V9.40005C29.3583 8.884 29.2329 8.37178 28.9723 7.92568C28.7117 7.47957 28.327 7.11877 27.8652 6.88715C27.4034 6.65553 26.8842 6.56306 26.3708 6.62097C25.8574 6.67889 25.3719 6.88469 24.9733 7.21338Z" fill="white"/>
</g>
</svg>
