<svg width="32" height="32" viewBox="0 0 32 32" fill="none" xmlns="http://www.w3.org/2000/svg">
<g id="ic:round-phone">
<path id="Vector" d="M25.6401 20.3468L22.2534 19.9601C21.8552 19.9133 21.4515 19.9574 21.0728 20.089C20.6941 20.2207 20.3501 20.4364 20.0667 20.7201L17.6134 23.1734C13.8283 21.2484 10.7518 18.1718 8.82672 14.3868L11.2934 11.9201C11.8667 11.3468 12.1467 10.5468 12.0534 9.73343L11.6667 6.37343C11.5911 5.723 11.279 5.12308 10.7897 4.68789C10.3004 4.25271 9.6682 4.01265 9.01339 4.01343H6.70672C5.20005 4.01343 3.94672 5.26676 4.04005 6.77343C4.74672 18.1601 13.8534 27.2534 25.2267 27.9601C26.7334 28.0534 27.9867 26.8001 27.9867 25.2934V22.9868C28.0001 21.6401 26.9867 20.5068 25.6401 20.3468Z" fill="white"/>
</g>
</svg>
