<svg width="219" height="40" viewBox="0 0 219 40" fill="none" xmlns="http://www.w3.org/2000/svg">
<g id="LOGO">
<g id="Group 12">
<g id="DineGO">
<path d="M7.5498 30.8871V8.94824H13.3494C14.8555 8.94824 16.2829 9.23373 17.6317 9.80471C18.9804 10.3537 20.1718 11.1333 21.2058 12.1435C22.2174 13.1757 23.0041 14.3616 23.5661 15.7012C24.1506 17.0188 24.4428 18.4243 24.4428 19.9177C24.4428 21.411 24.1506 22.8275 23.5661 24.1671C23.0041 25.4847 22.2174 26.6486 21.2058 27.6588C20.1718 28.691 18.9804 29.4926 17.6317 30.0635C16.2829 30.6126 14.8555 30.8871 13.3494 30.8871H7.5498ZM10.5845 11.9129V27.9224H13.3494C14.4284 27.9224 15.4624 27.7137 16.4515 27.2965C17.4631 26.8792 18.3397 26.3082 19.0816 25.5835C19.8234 24.8369 20.3966 23.9804 20.8012 23.0141C21.2283 22.0259 21.4419 20.9937 21.4419 19.9177C21.4419 18.8416 21.2283 17.8204 20.8012 16.8541C20.3966 15.8659 19.8234 14.9984 19.0816 14.2518C18.3397 13.5271 17.4631 12.9561 16.4515 12.5388C15.4624 12.1216 14.4284 11.9129 13.3494 11.9129H10.5845Z" fill="white"/>
<path d="M28.8697 12.0447C28.4426 12.0447 28.0717 11.902 27.757 11.6165C27.4647 11.309 27.3186 10.9467 27.3186 10.5294C27.3186 10.1122 27.4647 9.76079 27.757 9.4753C28.0717 9.16785 28.4426 9.01412 28.8697 9.01412C29.2968 9.01412 29.6565 9.16785 29.9487 9.4753C30.2634 9.76079 30.4207 10.1122 30.4207 10.5294C30.4207 10.9467 30.2634 11.309 29.9487 11.6165C29.6565 11.902 29.2968 12.0447 28.8697 12.0447ZM27.4872 30.8871V14.4165H30.3196V30.8871H27.4872Z" fill="white"/>
<path d="M44.7303 30.8871V21.0047C44.7303 20.0165 44.3594 19.16 43.6176 18.4353C42.8983 17.7326 42.0216 17.3812 40.9876 17.3812C39.976 17.3812 39.0993 17.7435 38.3575 18.4682C38.0203 18.7977 37.7506 19.1929 37.5483 19.6541C37.346 20.0933 37.2448 20.5435 37.2448 21.0047V30.8871H34.3113V14.8118H37.2448V16.1624C37.6719 15.6573 38.2339 15.24 38.9307 14.9106C39.6276 14.5812 40.3132 14.4165 40.9876 14.4165C41.8867 14.4165 42.7409 14.5922 43.5502 14.9435C44.3819 15.2729 45.1125 15.7451 45.7419 16.36C46.3488 16.9529 46.8209 17.6557 47.1581 18.4682C47.5177 19.2588 47.6976 20.1043 47.6976 21.0047V30.8871H44.7303Z" fill="white"/>
<path d="M54.1481 23.9035C54.1481 24.4306 54.3391 24.9796 54.7213 25.5506C55.1259 26.1216 55.5867 26.6047 56.1038 27C57.0479 27.7247 58.1493 28.0871 59.4082 28.0871C61.4088 28.0871 63.0385 27.1428 64.2974 25.2541L66.86 26.7365C65.9833 28.12 64.9043 29.1851 63.623 29.9318C62.3417 30.6784 60.9368 31.0518 59.4082 31.0518C58.2617 31.0518 57.1715 30.8431 56.1375 30.4259C55.1034 29.9867 54.193 29.3828 53.4063 28.6141C52.6195 27.8455 52.0013 26.9561 51.5517 25.9459C51.1246 24.9357 50.9111 23.8706 50.9111 22.7506C50.9111 21.6306 51.1246 20.5655 51.5517 19.5553C52.0013 18.5231 52.6195 17.6228 53.4063 16.8541C54.1706 16.0855 55.0697 15.4926 56.1038 15.0753C57.1603 14.658 58.2617 14.4494 59.4082 14.4494C60.5546 14.4494 61.6448 14.658 62.6789 15.0753C63.7354 15.4926 64.6458 16.0855 65.4101 16.8541C67.0735 18.5231 67.9053 20.4557 67.9053 22.6518C67.9053 23.0471 67.8715 23.4643 67.8041 23.9035H54.1481ZM59.4082 17.1506C58.4865 17.1506 57.6211 17.3482 56.8118 17.7435C56.0026 18.1388 55.3507 18.6659 54.8562 19.3247C54.3841 19.9616 54.1481 20.6424 54.1481 21.3671H64.6683C64.6683 20.6424 64.421 19.9616 63.9265 19.3247C63.4544 18.6659 62.8138 18.1388 62.0045 17.7435C61.1953 17.3482 60.3298 17.1506 59.4082 17.1506Z" fill="white"/>
</g>
<g id="DineGO_2">
<path d="M89.0799 28.7788C88.5629 29.1522 88.0459 29.4706 87.5289 29.7341C85.8879 30.5906 84.1458 31.0188 82.3025 31.0188C81.156 31.0188 80.0546 30.8541 78.9981 30.5247C77.6043 30.1294 76.3343 29.4706 75.1879 28.5482C74.0414 27.6259 73.1085 26.5059 72.3892 25.1882C71.535 23.673 71.1079 21.993 71.1079 20.1482C71.1079 19.5773 71.1304 19.1381 71.1753 18.8306C71.3102 17.6228 71.6249 16.4808 72.1195 15.4047C72.6365 14.3067 73.2996 13.3404 74.1089 12.5059C74.9181 11.6714 75.8397 10.9686 76.8738 10.3977C77.9303 9.82668 79.0543 9.43139 80.2456 9.21178C80.92 9.08001 81.6169 9.01413 82.3362 9.01413C84.202 9.01413 85.9778 9.47531 87.6637 10.3977C88.9226 11.1224 90.0577 12.0557 91.0693 13.1977L88.7427 15.1082C87.6412 13.9224 86.4836 13.0769 85.2697 12.5718C84.2582 12.1984 83.2354 12.0118 82.2013 12.0118C80.8751 12.0118 79.6162 12.3192 78.4248 12.9341C76.9412 13.7028 75.7948 14.8886 74.9855 16.4918C74.4011 17.5898 74.1089 18.7647 74.1089 20.0165C74.1089 20.7192 74.21 21.422 74.4123 22.1247C74.8394 23.8377 75.806 25.2541 77.3121 26.3741C78.009 26.9012 78.7845 27.3075 79.6387 27.593C80.4929 27.8784 81.3696 28.0212 82.2688 28.0212C83.4601 28.0212 84.5729 27.7906 85.6069 27.3294C86.6634 26.8463 87.5963 26.1765 88.4055 25.32V23.113H85.3034V20.1482H91.4065V26.4071C90.7096 27.3733 89.9341 28.1639 89.0799 28.7788Z" fill="#F95A37"/>
<path d="M106.188 31.0518C104.66 31.0518 103.21 30.7773 101.838 30.2282C100.49 29.6573 99.2983 28.8557 98.2643 27.8235C97.2302 26.8133 96.421 25.6384 95.8365 24.2988C95.2521 22.9373 94.9599 21.5098 94.9599 20.0165C94.9599 18.5231 95.2408 17.1177 95.8028 15.8C96.3873 14.4604 97.2077 13.2745 98.2643 12.2424C99.2983 11.2322 100.49 10.4416 101.838 9.8706C103.21 9.29962 104.66 9.01413 106.188 9.01413C107.717 9.01413 109.167 9.29962 110.538 9.8706C111.909 10.4416 113.112 11.2322 114.146 12.2424C115.18 13.2526 115.989 14.4275 116.573 15.7671C117.158 17.1067 117.45 18.5231 117.45 20.0165C117.45 21.5098 117.158 22.9373 116.573 24.2988C115.989 25.6384 115.18 26.8133 114.146 27.8235C113.112 28.8337 111.909 29.6243 110.538 30.1953C109.167 30.7663 107.717 31.0518 106.188 31.0518ZM106.188 12.0118C105.087 12.0118 104.03 12.2204 103.019 12.6377C102.03 13.033 101.153 13.6039 100.389 14.3506C99.6242 15.0973 99.0285 15.9647 98.6014 16.953C98.1968 17.9192 97.9945 18.9404 97.9945 20.0165C97.9945 21.1145 98.2081 22.1686 98.6352 23.1788C99.0623 24.1671 99.6467 25.0235 100.389 25.7482C101.153 26.4949 102.03 27.0769 103.019 27.4941C104.03 27.8894 105.087 28.0871 106.188 28.0871C107.29 28.0871 108.335 27.8894 109.324 27.4941C110.336 27.0769 111.223 26.4949 111.988 25.7482C112.73 25.0235 113.314 24.1671 113.741 23.1788C114.168 22.1686 114.382 21.1145 114.382 20.0165C114.382 18.9404 114.168 17.9192 113.741 16.953C113.336 15.9647 112.752 15.0973 111.988 14.3506C111.223 13.6039 110.336 13.033 109.324 12.6377C108.335 12.2204 107.29 12.0118 106.188 12.0118Z" fill="#F95A37"/>
</g>
</g>
</g>
</svg>
